<svg width="880" height="389" viewBox="0 0 880 389" fill="none" xmlns="http://www.w3.org/2000/svg">
<path d="M735.02 14.62H778.03L772.1 1.01001H706.61L747 115H773L735.02 14.62Z" fill="#C5232D"/>
<path d="M668.98 115L642.46 14.6112H666.299L695 115H723L685.586 1H616L641.97 115H668.98Z" fill="#C5232D"/>
<path d="M516 115H544L533.1 30.57C532.8 28.05 532.87 25.82 533.31 23.89C533.75 21.97 534.56 20.34 535.76 19.02C536.95 17.71 538.53 16.71 540.52 16.03C542.5 15.36 544.88 15.01 547.69 15.01C550.24 15.01 552.56 15.37 554.63 16.07C556.71 16.77 558.53 17.8 560.1 19.15C561.67 20.5 562.97 22.16 563.97 24.11C564.98 26.07 565.7 28.32 566.1 30.84L579 115H607L591.13 32.68C589.99 26.66 588.03 21.7 585.38 17.65C582.75 13.64 579.43 10.49 575.52 8.08996C571.63 5.69996 567.15 4.02996 562.16 2.94996C557.19 1.87996 551.7 1.39996 545.81 1.39996C540 1.39996 534.66 1.89996 529.95 2.98996C525.23 4.07996 521.14 5.77996 517.83 8.18996C514.5 10.61 511.95 13.76 510.36 17.77C508.75 21.81 508.11 26.74 508.62 32.7L516 115Z" fill="#C5232D"/>
<path d="M437 115L437.25 57.27H459.11C464.44 57.27 469.26 56.41 473.47 54.87C477.66 53.33 481.24 51.13 484.11 48.42C486.96 45.73 489.1 42.55 490.47 39.07C491.82 35.61 492.4 31.85 492.15 27.96C491.9 24.2 490.87 20.64 489.16 17.43C487.46 14.24 485.09 11.39 482.13 9.01002C479.19 6.64002 475.67 4.74002 471.64 3.42001C467.63 2.11001 463.1 1.39001 458.14 1.39001H414.17L410 115H437ZM437.37 14.64H449.28C452.26 14.64 454.87 14.94 457.11 15.52C459.35 16.1 461.23 16.97 462.75 18.11C464.27 19.25 465.43 20.68 466.23 22.36C467.03 24.05 467.47 26.01 467.55 28.22C467.63 30.47 467.33 32.5 466.63 34.26C465.93 36.03 464.84 37.54 463.36 38.77C461.87 40 459.98 40.95 457.69 41.59C455.4 42.23 452.71 42.56 449.62 42.56H437.28L437.37 14.64Z" fill="#C5232D"/>
<path d="M338.84 30.57L329 115H301L313.83 32.7C314.78 26.74 316.62 21.81 319.22 17.77C321.79 13.76 325.11 10.61 329.03 8.18996C332.93 5.77996 337.44 4.07996 342.42 2.98996C347.39 1.89996 352.85 1.39996 358.66 1.39996C364.56 1.39996 369.93 1.87996 374.64 2.94996C379.36 4.02996 383.44 5.69996 386.74 8.08996C390.06 10.49 392.62 13.64 394.26 17.65C395.93 21.7 396.67 26.66 396.34 32.68L392 115H364L371.77 30.84C371.98 28.32 371.81 26.07 371.28 24.11C370.75 22.16 369.86 20.5 368.62 19.15C367.39 17.8 365.81 16.77 363.91 16.07C362.01 15.37 359.78 15.01 357.23 15.01C354.42 15.01 351.95 15.36 349.81 16.03C347.67 16.71 345.84 17.71 344.33 19.02C342.81 20.34 341.6 21.97 340.69 23.89C339.77 25.82 339.16 28.05 338.84 30.57Z" fill="#C5232D"/>
<path d="M241 115L263.51 14.61H305.3L307.65 1H243.36L214 115H241Z" fill="#C5232D"/>
<path d="M122.6 22.49C121.15 24.42 119.92 26.65 118.9 29.17L85 115H57L93.32 31.3C95.91 25.34 99.12 20.41 102.84 16.37C106.52 12.37 110.72 9.21 115.31 6.79C119.88 4.38 124.86 2.68 130.15 1.59C135.42 0.5 141.02 0 146.83 0C152.73 0 157.97 0.48 162.38 1.55C166.8 2.63 170.42 4.3 173.06 6.69C175.71 9.09 177.4 12.24 177.93 16.25C178.47 20.31 177.84 25.27 175.84 31.29L148 115H120L151.77 29.44C152.69 26.92 153.14 24.67 153.15 22.71C153.16 20.76 152.72 19.1 151.86 17.75C151 16.4 149.71 15.37 148 14.67C146.29 13.97 144.16 13.61 141.61 13.61C138.81 13.61 136.24 13.96 133.91 14.63C131.57 15.31 129.47 16.31 127.59 17.62C125.7 18.94 124.04 20.57 122.6 22.49Z" fill="#C5232D"/>
<path d="M214 115L214.25 387.49H241.98L241 115H214Z" fill="#90242D"/>
<path d="M410 115L410.32 387.47L437.45 387.49L437 115H410Z" fill="#90242D"/>
<path d="M120 115V344C120 358.62 113.56 366.33 102.21 366.33C89.7 366.33 84 358.43 84 344L85 115H57V341.31L57.01 341.33C57.22 375.88 76 387.49 102.21 387.49C128.95 387.49 146.84 376.14 146.84 340.74L148 115H120Z" fill="#90242D"/>
<path d="M364 115L363.52 345.24C363.52 359.86 357.17 367.56 345.82 367.56C333.31 367.56 327.54 359.67 327.54 345.24L329 115H301L300.61 342.54L300.62 342.56C300.83 377.11 319.61 388.72 345.82 388.72C372.56 388.72 390.45 377.37 390.45 341.97L392 115H364Z" fill="#90242D"/>
<path d="M579 115L578.5 345.24C578.5 359.86 572.15 367.56 560.8 367.56C548.29 367.56 542.52 359.67 542.52 345.24L544 115H516L515.59 342.54L515.6 342.56C515.81 377.11 534.59 388.72 560.8 388.72C587.54 388.72 605.43 377.37 605.43 341.97L607 115H579Z" fill="#90242D"/>
<path d="M669.94 273.41C669.94 305.34 665.52 321.12 657.43 338.43H696.48V262.93L695 115H723L722.83 256.05V338.44H731.29V387.5H705.9V359.61H648.39V387.5H623V338.44H631.27C640.5 318.05 643.97 302.27 643.97 263.99L642 115.01L669 115L669.94 273.41Z" fill="#90242D"/>
<path d="M773 115L773.62 367.55H821.52V388.71H747.26L747 115H773Z" fill="#90242D"/>
<path d="M773.42 141.53H821.32V162.69H747.06V141.53H773.42Z" fill="#90242D"/>
</svg>
