<svg width="1440" height="533" viewBox="0 0 1440 533" fill="none" xmlns="http://www.w3.org/2000/svg">
<path d="M1310.76 369.78C1321.25 369.78 1338.33 369.66 1338.33 348.49V202.9L1384.98 179.58C1389.57 177.28 1392.46 172.6 1392.46 167.47V54.03L1440 30.26V0L1404.17 17.91L1335.45 0.66C1335.45 0.66 1334.25 0.3 1332.89 0.06C1330.92 -0.29 1329.12 1.24 1329.12 3.24V58L1305.82 66.74C1304.58 67.21 1303.76 68.39 1303.76 69.71V80.95L1283.24 75.82C1283.24 75.82 1279.59 74.73 1275.45 73.98C1269.47 72.91 1263.99 77.55 1263.99 83.63V119.02L1258.17 116.84V53.62C1258.17 51.31 1256.09 49.54 1253.81 49.95C1252.24 50.23 1250.85 50.65 1250.85 50.65L1171.23 71.4L1099.7 53.52C1097.65 53 1095.44 53.47 1093.77 54.78C1092.09 56.08 1091.11 58.09 1091.11 60.22V138.66L1076.61 135.04C1076.62 134.96 1069.1 133.07 1060.66 130.98V67.24C1059.27 64.86 1049.8 67.71 1049.8 67.71L981.92 84.52C979.5 85.12 977.81 87.3 977.81 89.79V150.98L960.76 154.8V47.05C960.76 45.59 960.12 44.21 959.04 43.32C957.96 42.42 956.53 42.1 955.2 42.46L890.31 59.29C888.32 59.81 886.92 61.71 886.92 63.88V76.4L848.92 67.13C848.92 67.13 842.01 64.9 841.93 69V132.16L827.94 129.03V107.31C827.94 106.01 827.21 104.82 826.04 104.24L807.37 94.9C804.28 93.35 800.51 94.9 800.51 94.9L786.9 101.7V82.38C786.9 80.64 785.39 79.23 783.52 79.23L751.98 83.62V50.72C751.98 49.7 751.51 48.74 750.71 48.12C749.91 47.49 748.85 47.27 747.87 47.52L694.98 60.74C693.51 61.11 692.48 62.43 692.48 63.95L692.62 85.5C692.62 85.5 668.83 79.47 667.36 79.21C665.24 78.83 663.3 80.48 663.3 82.63V118.41L652.28 114.28V59.49C652.28 57.49 650.47 55.96 648.51 56.31C647.15 56.55 645.95 56.91 645.95 56.91L595.52 70.11L522.6 51.88C520.92 51.46 519.11 51.84 517.74 52.91C516.36 53.98 515.56 55.63 515.56 57.37V126.01L499.71 121.82V23.27C499.71 20.67 497.91 18.41 495.35 17.78L430.55 1.87C430.55 1.87 420.5 -1.09 419.03 1.38V51.66L317.62 77.13C314.59 77.89 312.46 80.61 312.46 83.74V133.71L296.93 125.04V80.5C296.93 78.48 295.79 76.65 293.99 75.74L270.47 63.99V40.33C270.47 36.36 268.23 32.75 264.68 30.97L207.7 2.49C198.27 -2.23 186.78 2.49 186.78 2.49L129.8 30.97C126.25 32.75 124.01 36.37 124.01 40.34V47.58L97.82 41.06C97.82 41.06 87.77 38.04 86.3 40.56V68.61L21.25 78.61C19.64 78.82 18.37 80.1 18.19 81.72L13.19 122.73L0 119.41V126.99L45.35 138.42V165.75L18.74 172.4C17.11 172.81 15.96 174.28 15.96 175.96V189.65L0 186.21V211.37L135.77 244.86V437.53C85.67 467.54 40.49 499.87 0 533H235C351.9 397.72 528.29 311.6 725.91 311.6C923.53 311.6 1100.1 397.73 1217 533H1440C1395.68 497.39 1346.71 462.67 1293.18 430.79V370.48L1310.76 369.78ZM1310.1 71.9L1333.4 63.17C1334.64 62.7 1335.46 61.52 1335.46 60.2V7.2L1395.47 22.27L1372.89 33.55C1368.3 35.86 1365.4 40.53 1365.4 45.67V96.36L1310.1 82.53V71.9ZM1214.58 160.54L1263.97 172.89L1263.99 172.88V249.93L1213.32 268.93L1214.58 160.54ZM1250.84 58.19V119.36C1250.84 120.89 1251.79 122.25 1253.21 122.79L1263.98 126.83V162.71L1214.69 150.39L1215.42 87.85C1215.42 84.68 1213.26 81.92 1210.19 81.15L1186 75.09L1250.84 58.19ZM1104.93 69.06L1201.61 93.23L1199.44 274.12L1193.22 276.45C1189.46 277.87 1186.97 281.46 1186.97 285.47V374.67C1175.89 369.54 1164.66 364.55 1153.26 359.72V159.59C1153.26 156.42 1151.1 153.66 1148.03 152.89L1104.92 142.11V69.06H1104.93ZM1139.45 164.98V353.96C1108.37 341.29 1076.13 329.82 1042.77 319.81V140.81L1139.45 164.98ZM1049.79 78.91V128.28C1042.97 126.6 1037.54 125.26 1037.54 125.26C1035.49 124.74 1033.28 125.21 1031.61 126.52C1029.93 127.82 1028.95 129.83 1028.95 131.96V315.76C1015.69 311.98 1002.27 308.42 988.66 305.12V94.04L1049.79 78.91ZM977.8 216.4V302.54C968.18 300.31 958.46 298.23 948.67 296.25V222.01L977.8 216.4ZM977.8 157.71V207.24L960.75 210.11V161.4L977.8 157.71ZM951.79 53.11V211.63L944.12 212.92C941.61 212.92 939.58 214.96 939.58 217.46V294.45C934.36 293.45 929.1 292.49 923.83 291.56V160.91C923.83 159.25 922.89 157.73 921.41 156.99L897.54 145.06C897.54 145.06 896.89 144.79 895.87 144.55V67.58L951.79 53.11ZM871.25 215.46V163.62L893.16 152.67L915.07 163.62V290.05C890.51 285.94 865.42 282.67 839.82 280.3V230.88L862.49 223.49C871.55 221.05 871.25 215.46 871.25 215.46ZM848.9 153.29V74.34L886.9 83.6V145.99L864.91 156.99C863.42 157.73 862.49 159.25 862.49 160.91V214.45L834.37 223.21C832.42 223.7 831.05 225.45 831.05 227.46V279.53C827.69 279.25 824.32 278.97 820.93 278.72V166.21L846.64 156.57C847.99 156.05 848.9 154.75 848.9 153.29ZM841.9 137.16V150.86L827.91 156.1V134.12L841.9 137.16ZM803.92 100.87L821.06 109.44L821.38 158.57L816.2 160.51C814.84 161.02 813.93 162.33 813.93 163.79V278.23C804.97 277.62 795.96 277.13 786.88 276.74V109.39L803.92 100.87ZM751.96 89.53L780.12 85.54V276.47C777.01 276.36 773.9 276.25 770.78 276.17V140.09C770.78 139.07 770.31 138.11 769.51 137.49C768.71 136.86 767.65 136.64 766.67 136.89L751.97 140.57V89.53H751.96ZM745.35 54.96V142.21L713.77 150.1C712.3 150.47 711.27 151.79 711.27 153.31V276.13C707.53 276.21 703.81 276.33 700.1 276.45L699.07 66.53L745.35 54.96ZM670.09 143.9V86.88L692.63 92.54L693.48 276.66C682.32 277.06 671.28 277.61 660.34 278.28V197.08C660.34 195.87 659.78 194.73 658.83 193.99C657.88 193.25 656.63 192.98 655.46 193.28L617.38 202.8V164.83L667.87 147.1C669.21 146.59 670.09 145.32 670.09 143.9ZM652.49 202.11V278.78C633.85 280.04 615.54 281.69 597.53 283.69V215.85L652.49 202.11ZM645.91 63.46V116.46C645.91 117.78 646.73 118.96 647.97 119.43L663.28 125.17V141.54L617.4 157.55V80.01C617.4 77.41 615.63 75.15 613.12 74.52L608.92 73.47L645.91 63.46ZM526.84 64.63L606.06 84.43V205.62L592.64 208.97C590.9 209.41 589.67 210.98 589.67 212.78V284.57C579.75 285.74 569.92 287.02 560.19 288.41V141.64C560.19 139.39 558.74 137.43 556.68 136.89L526.84 129V64.63ZM550.92 145.47V289.76C533.53 292.37 516.45 295.33 499.67 298.6V131.93L550.92 145.47ZM430.55 13.54L488.15 27.69V205.54L451.38 192.06V46.37C449.64 43.39 437.75 46.96 437.75 46.96L430.55 48.77V13.54ZM430.5 62.83L430.55 62.85V62.81L437.75 61V196.77C437.75 199.61 439.52 202.15 442.17 203.16L488.15 220.65V300.58H489.7C438.85 310.95 390.82 324.24 345.52 339.84V199.21C345.52 194.41 342.25 190.22 337.6 189.06L326.09 185.48V89.07L430.5 62.83ZM286.3 83.79V128.33C286.3 130.35 287.44 132.18 289.24 133.09L312.46 144.72V181.24L270.47 168.16V75.87L286.3 83.79ZM124.02 59.45V212.98L97.83 207.33V52.93L124.02 59.45ZM20.13 124.48L24.93 85.29L86.31 75.78V155.52L52.7 163.91V135.55C52.7 133.86 51.55 132.39 49.92 131.99L20.13 124.48ZM23.3 178.83L86.31 163.09V204.84L23.3 191.24V178.83ZM156.88 425.17V231.32C156.88 223.86 152.15 217.8 146.33 217.8L144.94 217.5V46.8L197.24 20.65L249.54 46.8V170.58C249.54 170.58 248.81 183.92 270.47 189.73L324.6 207.38V341.88C324.6 343.68 325.07 345.36 325.87 346.84C264.45 369.27 208.2 395.92 156.88 425.17ZM717.88 276.01V155.89L764.16 144.32V276.02C756.84 275.87 749.49 275.77 742.09 275.77C733.96 275.78 725.9 275.87 717.88 276.01ZM1206.23 383.81V292.14L1276.99 265.61C1280.74 264.19 1283.24 260.6 1283.24 256.59V95.65L1365.41 116.2V159.1L1318.76 182.42C1314.18 184.72 1311.28 189.41 1311.28 194.53V343.46L1279.65 343.41C1272.18 343.41 1266.11 349.47 1266.11 356.94V415.14C1246.71 404.27 1226.75 393.8 1206.23 383.81Z" fill="#C5232D"/>
</svg>
