<svg width="1440" height="2637" viewBox="0 0 1440 2637" fill="none" xmlns="http://www.w3.org/2000/svg">
<path d="M447 27L290.18 0.887717C281.88 -1.33228 272.95 0.667717 266.18 6.25772C259.38 11.8377 255.42 20.4377 255.42 29.5277V679.298C255.42 695.588 267.94 708.818 283.38 708.818C298.81 708.818 311.34 695.588 311.34 679.298V67.3677L434.5 100L447 27Z" fill="white"/>
<path d="M1440 1497.94L994.8 1386.63C983.46 1383.76 971.29 1386.35 962.04 1393.57C952.75 1400.78 947.34 1411.87 947.34 1423.63V2636.68H1023.68V1472.56L1440 1576.62V1497.94Z" fill="white"/>
<path d="M507.01 676.048L396.64 620.878C396.64 620.878 355.32 603.908 321.39 620.878L116.42 723.348C103.65 729.738 95.59 742.748 95.59 757.018V1368.77H170.86V780.278L359.01 686.198L507 766.168V676.048H507.01Z" fill="white"/>
<path d="M0 1376.04L278.86 1445.75V2636.67H355.48V1415.83C355.48 1398.25 343.5 1382.93 326.49 1378.68L0 1297.07V1376.04Z" fill="white"/>
<path d="M0 397.288L156.09 438.518V755.638C156.1 763.958 155.65 771.978 163.52 771.978L170.36 770.718C178.24 770.718 184.64 763.958 184.64 755.638V426.738C184.64 419.818 180.17 413.778 173.83 412.108L0 366.198V397.288Z" fill="white"/>
<path d="M1154.51 547.817V1496.27L1075.86 1478.92V580.317L525.12 434.917V2636.68H446.38V381.677C446.38 368.857 451.96 356.767 461.51 348.937C471.06 341.107 483.6 338.267 495.3 341.397L1124.74 507.547C1142.22 512.147 1154.51 528.737 1154.51 547.817Z" fill="white"/>
</svg>
