<svg width="1407" height="4865" viewBox="0 0 1407 4865" fill="none" xmlns="http://www.w3.org/2000/svg">
<path d="M0.06 1062.16C0.06 1062.16 191.28 1053.64 208.92 1325.41C209.33 1331.78 260.43 1322.31 276.66 1394.32C276.66 1394.32 421.31 1463.23 410.73 1553.05C410.73 1553.05 484.11 1542.21 490.46 1621.19C490.46 1621.19 565.96 1615 598.42 1670.74C598.42 1670.74 673.21 1632.03 702.14 1731.13C702.14 1731.13 739.54 1730.36 748 1773.72H0L0.06 1062.16Z" fill="#015D84"/>
<path d="M0 791.4H742.55C1016.6 517.66 608.21 398.83 608.21 398.83C575.97 173.14 248.19 227.09 248.19 227.09C150.95 112.25 76.1 89.02 0 104.84V791.4Z" fill="#015D84"/>
<path d="M1406.28 185.19H641.92C657.19 122.97 724.61 124.08 724.61 124.08C776.77 -18.14 911.62 37.42 911.62 37.42C923.53 21.14 938.65 8.54 955.19 -1.2L1406.49 -2L1406.28 185.19Z" fill="#015D84"/>
<path d="M1027.11 3194.02C1053.49 3191.45 1081.89 3202.92 1101.18 3250.32C1101.18 3250.32 1159.84 3226.46 1206.57 3309.98C1206.57 3309.98 1234.91 3309.48 1238.39 3334.84C1238.39 3334.84 1260.15 3348.26 1240.2 3368.65L975.39 3369.81C966.12 3369.85 958.58 3362.34 958.58 3353.07V3271.06C958.59 3231.71 987.96 3197.84 1027.11 3194.02Z" fill="#015D84"/>
<path d="M547.2 4470.5C488.01 4464.73 424.3 4490.48 381 4596.83C381 4596.83 249.38 4543.29 144.53 4730.68C144.53 4730.68 80.95 4729.56 73.14 4786.45C73.14 4786.45 24.32 4816.57 69.07 4862.3L663.22 4864.9C684.03 4864.99 700.95 4848.15 700.95 4827.34V4643.33C700.95 4555.07 635.05 4479.07 547.2 4470.5Z" fill="#015D84"/>
</svg>
