<svg width="1440" height="6714" viewBox="0 0 1440 6714" fill="none" xmlns="http://www.w3.org/2000/svg">
<path d="M1440 6211.75H1023.68C1042.53 6134.91 1125.8 6136.28 1125.8 6136.28C1190.21 5960.65 1356.75 6029.25 1356.75 6029.25C1371.46 6009.14 1372.12 5981.5 1440 5981.5V6211.75Z" fill="#015D84"/>
<path d="M1439.73 2754C1282.13 2780.6 1230.29 2983.79 1230.29 2983.79C1099.51 3016.13 1116.7 3117.97 1105.13 3118.79C732.97 3145.3 650.2 3368.47 632 3476.67H1439.73V2754Z" fill="#015D84"/>
<path d="M0 1615.03C210 1524.77 625.982 1611.22 726 1869.59C726 1869.59 1495.46 1927.68 1358.68 2530.37H0V1615.03Z" fill="#015D84"/>
<path d="M261.38 6420.53C293.78 6404.09 342.54 6395.2 371.21 6465.64C371.21 6465.64 429.87 6441.78 476.6 6525.3C476.6 6525.3 504.94 6524.8 508.42 6550.16C508.42 6550.16 530.18 6563.58 510.23 6583.97L228.61 6585.2V6474.28C228.61 6451.64 241.19 6430.77 261.38 6420.53Z" fill="#015D84"/>
<path d="M1440 719.83C1286.42 745.75 1235.9 943.75 1235.9 943.75C1108.45 975.27 1125.21 1074.5 1113.94 1075.31C751.27 1101.14 670.62 1318.62 652.88 1424.06H1440V719.83Z" fill="#015D84"/>
<path d="M1440.26 81.12C1440.26 81.12 1311.94 -77.09 1205.44 48.67C1205.44 48.67 1057.8 24.37 1043.28 126.03C1043.28 126.03 859.33 179.55 982.77 302.85H1440L1440.26 81.12Z" fill="#015D84"/>
<path d="M165.6 5781.03C246.27 5773.16 333.1 5808.26 392.1 5953.2C392.1 5953.2 571.48 5880.23 714.38 6135.63C714.38 6135.63 801.03 6134.11 811.67 6211.64C811.67 6211.64 878.21 6252.69 817.21 6315.01L0 6318.58V5878.19C37.67 5824.92 96.68 5787.75 165.6 5781.03Z" fill="#015D84"/>
<path d="M232.488 2645.15C321.995 2636.41 418.323 2675.36 483.782 2836.24C483.782 2836.24 682.802 2755.25 841.345 3038.72C841.345 3038.72 937.483 3037.03 949.291 3123.09C949.291 3123.09 1023.11 3168.65 955.434 3237.82L0 3242V2906.59C0 2773.06 99.6489 2658.11 232.488 2645.15Z" fill="#015D84"/>
<path d="M0 4032H1146C1146 4032 1071.73 3801.35 719.267 3768.33C708.437 3767.32 724.538 3674.98 601.882 3645.57C601.882 3645.57 512.728 3306.79 208.896 3486.63C208.896 3486.63 84.3391 3488.21 0.0111192 3547.77V4032H0Z" fill="#015D84"/>
<path d="M947.25 6714.18H406C416.81 6663.71 464.55 6664.62 464.55 6664.62C501.48 6549.27 596.97 6594.33 596.97 6594.33C638.41 6529.45 734.8 6536.66 734.8 6536.66C742.91 6444.74 836.6 6457.36 836.6 6457.36C828.28 6393.01 895.07 6337.88 947.64 6305L947.25 6714.18Z" fill="#015D84"/>
<path d="M1310.04 3772.96C1180.98 3706.26 986.3 3669.77 871.91 3955.21C871.91 3955.21 638.21 3858.64 452.04 4196.63C452.04 4196.63 339.15 4194.62 325.29 4297.22C325.29 4297.22 238.61 4351.53 318.07 4434.02L1440.01 4439V3988.6C1440 3897.63 1389.86 3814.22 1310.04 3772.96Z" fill="#015D84"/>
<path d="M1440 4607C1272.67 4635.24 1217.62 4850.98 1217.62 4850.98C1078.76 4885.32 1097.02 4993.44 1084.73 4994.32C689.58 5022.46 601.71 5259.42 582.39 5374.3H1440V4607Z" fill="#015D84"/>
</svg>
