<svg width="95" height="126" viewBox="0 0 95 126" fill="none" xmlns="http://www.w3.org/2000/svg">
<g clip-path="url(#clip0)">
<path d="M40.7625 0.811035H25.0055L88.1285 63.2029L40.7625 0.811035Z" fill="#015D84"/>
<path d="M0 10.9033V23.8855L88.1371 63.2028L0 10.9033Z" fill="#015D84"/>
<path d="M0.968063 39.2832V50.3331L88.1371 63.1945L0.968063 39.2832Z" fill="#015D84"/>
<path d="M0 75.1925V85.3194L88.1371 64.0908L0 75.1925Z" fill="#015D84"/>
<path d="M0 102.83V116.011L88.1371 63.1938L0 102.83Z" fill="#015D84"/>
<path d="M24.7029 125.948L41.6786 126L88.1285 63.2026L24.7029 125.948Z" fill="#015D84"/>
<path d="M15.126 0.241211V4.73536H5.47129V60.6232H0V0.241211H15.126Z" fill="#C5232D"/>
<path d="M15.126 65.6094V70.1035H5.47129V125.991H0V65.6094H15.126Z" fill="#C5232D"/>
<path d="M33.0784 72.8463V118.668C33.0784 122.558 30.9954 125.957 25.0314 125.957C18.9464 125.957 16.9411 122.558 16.9411 118.668V72.8463C16.9411 68.9559 18.9464 65.5659 25.0314 65.5659C30.9954 65.5659 33.0784 68.9646 33.0784 72.8463ZM22.2741 72.1907V119.315C22.2741 121.316 23.441 121.971 25.0227 121.971C26.6909 121.971 27.7368 121.402 27.7368 119.315V72.1907C27.7368 70.1032 26.6909 69.5339 25.0227 69.5339C23.441 69.5339 22.2741 70.1463 22.2741 72.1907Z" fill="#C5232D"/>
<path d="M25.0314 0.241211C18.9464 0.241211 16.9411 3.63123 16.9411 7.52156V53.3515C16.9411 57.2332 18.9464 60.6318 25.0314 60.6318C30.9954 60.6318 33.0784 57.2418 33.0784 53.3515V7.51293C33.0784 3.63123 30.9954 0.241211 25.0314 0.241211ZM28.1085 53.9984C28.1085 56.0859 26.8638 56.6553 25.1956 56.6553C23.6139 56.6553 22.2828 55.9997 22.2828 53.9984V6.85735C22.2828 4.81299 23.4324 4.20055 25.0141 4.20055C26.6823 4.20055 27.7541 4.76986 27.7541 6.85735L28.1085 53.9984Z" fill="#C5232D"/>
<path d="M47.8414 65.6094C46.0868 65.6094 44.3322 66.6272 43.5629 68.6716V66.1787H38.5497V125.991H43.5629V109.309C44.4186 111.31 45.9312 112.336 47.8414 112.336C50.9012 112.336 53.6757 110.335 53.6757 106.039V71.8632C53.6757 67.3691 50.9012 65.6094 47.8414 65.6094ZM49.0256 105.755C49.0256 107.514 47.5994 108.368 46.2942 108.368C45.0323 108.368 43.5629 107.506 43.5629 105.669V72.4412C43.5629 70.6038 44.8508 69.7412 46.1127 69.7412C47.4179 69.7412 49.0342 70.5952 49.0342 72.3549V105.755H49.0256Z" fill="#C5232D"/>
<path d="M93.1762 116.744V0H79.4072V8.13432C79.4072 13.9224 78.8368 114.226 77.5057 116.744H76.0882V125.767H80.7902V120.566H90.3066V125.767H95.0087V116.744H93.1762ZM88.1976 116.744H82.5275C83.582 114.458 84.1871 14.8281 84.1871 9.79051V3.82132H88.1976V116.744Z" fill="#C5232D"/>
<path d="M66.7273 0C61.0227 0 59.147 3.39002 59.147 7.28034V118.487C59.147 122.368 61.0227 125.767 66.7273 125.767C72.3196 125.767 74.273 122.368 74.273 118.487V7.28034C74.273 3.39002 72.311 0 66.7273 0ZM69.6142 119.142C69.6142 121.23 68.4387 121.799 66.8829 121.799C65.3962 121.799 64.1516 121.144 64.1516 119.142V6.62477C64.1516 4.58041 65.4049 3.96796 66.8829 3.96796C68.4474 3.96796 69.6142 4.53728 69.6142 6.62477V119.142Z" fill="#C5232D"/>
<path d="M43.5629 0.802226V3.29514C44.3408 1.25078 46.0954 0.23291 47.8414 0.23291C50.9012 0.23291 53.6757 1.99261 53.6757 6.48676V40.663C53.6757 44.9587 50.9012 46.96 47.8414 46.96C45.9226 46.96 44.4186 45.9335 43.5629 43.9322V60.6149H38.5497V0.802226H43.5629ZM43.5629 7.0647V40.3007C43.5629 42.138 45.0323 43.0006 46.2942 43.0006C47.5994 43.0006 49.0256 42.138 49.0256 40.3869V6.97844C49.0256 5.21874 47.5994 4.36476 46.2942 4.36476C45.0323 4.36476 43.5629 5.21874 43.5629 7.0647Z" fill="#C5232D"/>
<path d="M88.189 93.5919C72.1468 93.5919 59.1384 80.6097 59.1384 64.5999C59.1384 48.59 72.1468 35.6079 88.189 35.6079V93.5919Z" fill="#C5232D"/>
<path d="M88.189 40.8184C77.8255 40.8184 69.4241 49.2028 69.4241 59.5454C69.4241 69.888 77.8255 78.2725 88.189 78.2725V40.8184Z" fill="white"/>
<path d="M22.7409 34.0296L23.9855 31.7179L23.7522 24.9982L16.4225 20.6421L15.8521 23.3248L16.4917 31.2348L22.7409 34.0296Z" fill="#015D84"/>
<path d="M37.936 55.7927L37.5816 52.42L38.057 49.4268L44.6779 51.2727L44.0642 53.0842L44.2803 56.7416L37.936 55.7927Z" fill="#015D84"/>
<path d="M15.126 75.6415L16.9411 73.0537L22.2741 72.3809L23.804 75.0032L22.2741 79.9545L16.9411 81.2398L16.1027 78.2638L15.126 75.6415Z" fill="#015D84"/>
<path d="M48.9391 86.6911L48.386 86.1477L49.0256 80.929L53.7362 78.6689L54.3931 79.7903L53.84 83.7497L48.9391 86.6911Z" fill="#015D84"/>
<path d="M49.0256 24.1786L48.6971 19.0289L48.8613 11.5415L53.6671 17.8644L54.5746 23.1866L53.6757 28.8108L49.0256 24.1786Z" fill="#015D84"/>
</g>
<defs>
<clipPath id="clip0">
<rect width="95" height="126" fill="white"/>
</clipPath>
</defs>
</svg>
