<svg width="236" height="314" viewBox="0 0 236 314" fill="none" xmlns="http://www.w3.org/2000/svg">
<path d="M102.237 0.58345L60.7188 0.612622L218.926 157.496L102.237 0.58345Z" fill="#005C83"/>
<path d="M0 27.1585V59.5095L218.926 157.496L0 27.1585Z" fill="#005C83"/>
<path d="M2.38867 97.8989V125.437L218.926 157.496L2.38867 97.8989Z" fill="#005C83"/>
<path d="M0 187.397V212.63L218.926 159.742L0 187.397Z" fill="#005C83"/>
<path d="M0 256.27V289.117L218.926 157.496L0 256.27Z" fill="#005C83"/>
<path d="M61.3604 313.883L103.549 314L218.927 157.496L61.3604 313.883Z" fill="#005C83"/>
<path d="M37.5852 0.58345V11.7852H13.5773V151.078H0V0.58345H37.5852Z" fill="#C4222C"/>
<path d="M37.5852 163.505V174.707H13.5773V314H0V163.505H37.5852Z" fill="#C4222C"/>
<path d="M82.1627 181.562V295.739C82.1627 305.424 76.9765 313.883 62.1755 313.883C47.054 313.883 42.0718 305.424 42.0718 295.739V181.562C42.0718 171.877 47.054 163.418 62.1755 163.418C76.9765 163.389 82.1627 171.877 82.1627 181.562ZM55.3286 179.929V297.372C55.3286 302.361 58.2422 303.994 62.1755 303.994C66.3128 303.994 68.9059 302.565 68.9059 297.372V179.929C68.9059 174.736 66.3128 173.307 62.1755 173.307C58.2422 173.307 55.3286 174.824 55.3286 179.929Z" fill="#C4222C"/>
<path d="M62.1755 0.58345C47.054 0.58345 42.0718 9.04313 42.0718 18.728V132.934C42.0718 142.619 47.054 151.078 62.1755 151.078C76.9765 151.078 82.1627 142.619 82.1627 132.934V18.728C82.1627 9.04313 76.9765 0.58345 62.1755 0.58345ZM69.8382 134.567C69.8382 139.76 66.7498 141.189 62.5834 141.189C58.6501 141.189 55.3286 139.556 55.3286 134.567V17.0944C55.3286 11.9894 58.1839 10.4725 62.1172 10.4725C66.2545 10.4725 68.9059 11.9019 68.9059 17.0944L69.8382 134.567Z" fill="#C4222C"/>
<path d="M118.844 163.505C114.503 163.505 110.133 166.043 108.21 171.148V164.935H95.7397V314H108.21V272.431C110.337 277.419 114.095 279.986 118.844 279.986C126.449 279.986 133.325 274.998 133.325 264.292V179.112C133.325 167.881 126.449 163.505 118.844 163.505ZM121.787 263.563C121.787 267.938 118.233 270.097 114.999 270.097C111.852 270.097 108.21 267.968 108.21 263.359V180.541C108.21 175.961 111.415 173.803 114.532 173.803C117.766 173.803 121.787 175.932 121.787 180.337V263.563V263.563Z" fill="#C4222C"/>
<path d="M231.455 290.955V0H197.25V20.2741C197.25 34.7139 195.851 284.654 192.53 290.955H189.004V313.446H200.688V300.465H224.346V313.417H236V290.926H231.455V290.955ZM219.102 290.955H205C207.622 285.266 209.137 36.9601 209.137 24.3872V9.50985H219.102V290.955Z" fill="#C4222C"/>
<path d="M165.753 0C151.564 0 146.902 8.45968 146.902 18.1446V295.301C146.902 304.986 151.564 313.446 165.753 313.446C179.651 313.446 184.488 304.986 184.488 295.301V18.1446C184.488 8.45968 179.622 0 165.753 0ZM172.95 296.906C172.95 302.098 170.036 303.528 166.161 303.528C162.461 303.528 159.372 301.894 159.372 296.906V16.511C159.372 11.406 162.49 9.88908 166.161 9.88908C170.036 9.88908 172.95 11.3185 172.95 16.511V296.906Z" fill="#C4222C"/>
<path d="M108.21 0.612622V8.22633C110.133 3.12135 114.503 0.58345 118.844 0.58345C126.449 0.58345 133.325 4.95915 133.325 16.1609V101.341C133.325 112.047 126.449 117.035 118.844 117.035C114.095 117.035 110.337 114.497 108.21 109.48V151.049H95.7397V0.612622H108.21ZM108.21 17.5903V100.408C108.21 104.988 111.852 107.146 114.999 107.146C118.233 107.146 121.787 105.017 121.787 100.612V17.3861C121.787 13.0104 118.233 10.8518 114.999 10.8518C111.852 10.8809 108.21 13.0104 108.21 17.5903Z" fill="#C4222C"/>
<path d="M219.072 233.254C179.214 233.254 146.902 200.903 146.902 160.997C146.902 121.09 179.214 88.7392 219.072 88.7392L228.424 155.775L219.072 233.254Z" fill="#C4222C"/>
<path d="M219.072 101.72C193.316 101.72 172.455 122.607 172.455 148.394C172.455 174.182 193.316 195.069 219.072 195.069V101.72Z" fill="white"/>
<path d="M56.4943 84.801L59.6118 79.0543L59.0291 62.31L40.7901 51.4582L39.3916 58.1385L40.9649 77.8583L56.4943 84.801Z" fill="#005C83"/>
<path d="M94.2251 139.031L93.3511 130.629L94.5456 123.19L110.978 127.8L109.463 132.321L110.017 141.423L94.2251 139.031Z" fill="#005C83"/>
<path d="M37.585 188.505L42.0719 182.058L55.3287 180.395L59.1455 186.93L55.3287 199.269L42.0719 202.478L40.0032 195.039L37.585 188.505Z" fill="#005C83"/>
<path d="M121.554 216.043L120.185 214.701L121.788 201.69L133.5 196.06L135.132 198.861L133.733 208.721L121.554 216.043Z" fill="#005C83"/>
<path d="M120.564 59.9762L120.972 47.4326L121.788 26.896L133.325 42.3859L135.569 57.7884L133.733 73.045L120.564 59.9762Z" fill="#005C83"/>
</svg>
