<svg width="1440" height="7364" viewBox="0 0 1440 7364" fill="none" xmlns="http://www.w3.org/2000/svg">
<path d="M0 877.31L0.12 619.03L1220.45 239.71L0 877.31Z" fill="#C6212C"/>
<path d="M0 2206.57V1637.62L1220.45 239.72L0 2206.57Z" fill="#C6212C"/>
<path d="M1440.25 653.17L1220.45 239.71L1439.94 860.36L1440.25 653.17Z" fill="#C6212C"/>
<path d="M0 200.5V0.0999756H119.97L1220.45 239.71L0 200.5Z" fill="#C6212C"/>
<path d="M284.94 368.21V897.58H309.2V1009.15H251.44V945.71H120.62V1009.15H62.8701V897.58H81.6901C102.69 851.2 110.56 553.73 110.56 466.66V368.21H284.94V368.21ZM168.85 417.11V488.87C168.85 561.5 158.79 858.98 140.41 898.35H227.13L227.18 417.11H168.85Z" fill="white"/>
<path d="M484.79 394.72V757.04C484.79 791.92 466.43 822.4 413.92 822.4C360.31 822.4 342.69 791.93 342.69 757.04V394.72C342.69 359.84 360.31 329.36 413.92 329.36C466.43 329.36 484.79 359.83 484.79 394.72ZM389.69 388.84V762.91C389.69 780.9 399.97 786.78 413.92 786.78C428.61 786.78 437.79 781.64 437.79 762.91V388.84C437.79 370.11 428.61 364.97 413.92 364.97C399.97 364.97 389.69 370.48 389.69 388.84Z" fill="white"/>
<path d="M420.55 1240.43V1635.43C420.55 1670.31 402.19 1700.79 349.68 1700.79C296.07 1700.79 278.45 1670.32 278.45 1635.43V1240.43C278.45 1205.55 296.07 1175.07 349.68 1175.07C402.19 1175.07 420.55 1205.54 420.55 1240.43ZM325.45 1234.55V1641.3C325.45 1659.29 335.73 1665.17 349.68 1665.17C364.37 1665.17 373.55 1660.03 373.55 1641.3V1234.55C373.55 1215.82 364.37 1210.68 349.68 1210.68C335.74 1210.68 325.45 1216.19 325.45 1234.55Z" fill="white"/>
<path d="M845.54 698.75V907.16C845.54 918.97 839.32 929.28 821.55 929.28C803.4 929.28 797.44 918.96 797.44 907.16V698.75C797.44 686.94 803.4 676.63 821.55 676.63C839.32 676.62 845.54 686.94 845.54 698.75ZM813.35 696.76V909.15C813.35 915.24 816.83 917.23 821.55 917.23C826.52 917.23 829.63 915.49 829.63 909.15V696.76C829.63 690.42 826.52 688.68 821.55 688.68C816.83 688.68 813.35 690.54 813.35 696.76Z" fill="white"/>
<path d="M930.44 284.95V474.64C930.44 492.9 920.83 508.86 893.34 508.86C865.27 508.86 856.05 492.91 856.05 474.64V284.95C856.05 266.69 865.28 250.73 893.34 250.73C920.82 250.73 930.44 266.68 930.44 284.95ZM880.65 281.87V477.71C880.65 487.13 886.03 490.21 893.34 490.21C901.03 490.21 905.84 487.52 905.84 477.71V281.87C905.84 272.07 901.03 269.37 893.34 269.37C886.03 269.38 880.65 272.26 880.65 281.87Z" fill="white"/>
<path d="M575.38 346.91C582.08 337.17 591.51 325.6 608.86 325.6C644.47 325.6 660.6 345.99 660.6 379.77V661.21C660.6 690.13 645.38 715.38 601.86 715.38C557.42 715.38 542.82 690.12 542.82 661.21V362.43C542.82 315.86 561.69 288.78 593.65 280.86C614.65 275.69 625 272.34 628.34 265.03H654.82C650.86 281.77 640.82 293.33 612.52 300.64C589.39 306.73 577.83 317.07 574.48 346.9H575.38V346.91ZM621.64 666.08V374.91C621.64 359.39 614.33 355.13 602.16 355.13C590.59 355.13 581.77 359.7 581.77 374.91V666.09C581.77 681 590.29 685.87 601.85 685.87C614.03 685.87 621.64 681.61 621.64 666.08Z" fill="white"/>
<path d="M751.49 259.57V276C756.61 262.53 768.19 255.79 779.78 255.79C799.99 255.79 818.31 267.38 818.31 297.01V541.75C818.31 570.04 799.99 583.24 779.78 583.24C767.11 583.24 757.15 576.51 751.49 563.3V627.96H718.35V259.57H751.49ZM751.49 300.79V539.34C751.49 551.46 759.57 557.12 767.92 557.12C776.54 557.12 783.82 551.46 783.82 539.88V300.25C783.82 288.67 776.55 283.01 767.92 283.01C759.57 283.01 751.49 288.67 751.49 300.79Z" fill="white"/>
<path d="M248.96 1333.06V1975.28H186.73V1382.14H127.03V1492.13L62.8701 1565.57L64.8001 1333.05H248.96V1333.06Z" fill="white"/>
<path d="M772.71 759.8V1109.46H751.33V776.66H733.77V1069.48C733.77 1103.03 724.38 1111.2 711.69 1111.2C707 1111.2 703.69 1110.68 699.35 1109.46V1093.82C701.26 1094.17 702.65 1094.34 704.04 1094.34C712.04 1094.34 712.91 1091.04 712.91 1050.71V759.8H772.71Z" fill="white"/>
<path d="M866.11 584.34H891.49C900.99 584.34 910.87 589.47 910.87 600.34C910.87 609.22 905.5 614.22 900.62 616.09C906.37 618.34 918.83 634.77 918.83 702.23C918.83 773.39 905.87 793.02 896.12 793.02H866.12V584.34H866.11ZM881.48 611.34H885.73C891.48 611.34 894.86 608.96 894.86 603.46C894.86 597.83 891.49 595.58 885.73 595.58H881.48V611.34ZM881.48 781.77H888.65C897.51 781.77 906.56 774.43 906.56 702.24C906.56 660.89 900.4 622.71 889.04 622.71H881.48V781.77Z" fill="white"/>
<path d="M1011.46 492.97V499.26H997.46V614.63H989.48V499.26H975.47V492.97H1011.46V492.97Z" fill="white"/>
<path d="M73.4399 838.95L163.51 791.89L177.36 563.94L68.6399 597.74L73.4399 838.95Z" fill="#C6212C"/>
<path d="M317.14 520.5L407.92 492.28L420.32 657.73L322.77 708.69L317.14 520.5Z" fill="#C6212C"/>
<path d="M518.66 457.86L593.71 434.53L599.83 563.94L513.24 609.18L518.66 457.86Z" fill="#C6212C"/>
<path d="M694.5 403.2L768.33 380.25L767.66 476.27L694.5 514.49V403.2Z" fill="#C6212C"/>
<path d="M884.38 344.18L840.86 357.71L839.45 438.76L884.38 415.29" fill="#C6212C"/>
<path d="M253.11 1387.17L265.53 1333.12L334.11 1254.93L349.5 1643.32L278.45 1757.82L253.11 1387.17Z" fill="#C6212C"/>
<path d="M688.05 848.51L738.58 791.65V1016.29L699.52 1079.24L688.05 848.51Z" fill="#C6212C"/>
<path d="M623.46 855.3H665.65L702.34 1248.3H668.4L660.61 1205.19H625.06L615.2 1248.3H581.5L623.46 855.3ZM656.71 1180.65L644.1 876.16L628.97 1180.65H656.71Z" fill="white"/>
<path d="M644.01 899.98L603.77 946.07L566.78 1236.26L584.94 1263.89L645.22 1166.74L644.01 899.98Z" fill="#C6212C"/>
<path d="M401.31 962.8L442.23 1039.96V962.8H476V1039.96L516.92 962.8H538.11H556.61L543.69 982.36L510.02 1039.96L627.14 1293.43L581.49 1291.02L489.31 1069.79L476 1087.29V1090.77L442.23 1129.45V1087.29L428.91 1069.79L376.45 1195.68L340.28 1175.4L408.2 1039.96L363.08 962.8H401.31V962.8Z" fill="white"/>
<path d="M817.34 701.44L783.82 739.83L788.75 935.44L823.48 879.46L817.34 701.44Z" fill="#C6212C"/>
<path d="M884.45 624.58L862.81 649.36L858.84 822.49L892.46 768.3L884.45 624.58Z" fill="#C6212C"/>
<path d="M947.21 521.86H961.35L973.64 694.59H962.27L959.66 680.14H947.75L944.45 694.59H933.15L947.21 521.86ZM958.36 671.92L954.13 528.85L949.06 671.92H958.36V671.92Z" fill="white"/>
<path d="M954.12 544.77L938.99 562.11L926.9 712.79L955.23 667.15L954.12 544.77Z" fill="#C6212C"/>
<path d="M962.495 7364H0L1220 240L962.495 7364Z" fill="#C6212C"/>
<path d="M1439.94 0H958.65C922.35 54.88 901.19 120.66 901.19 191.37C901.19 383.22 1056.73 538.75 1248.6 538.75C1319.31 538.75 1385.08 517.62 1439.95 481.32V0H1439.94Z" fill="#C6212C"/>
<path d="M1202.78 452.62C1320.3 452.62 1415.56 357.37 1415.56 239.86C1415.56 122.36 1320.3 27.1 1202.78 27.1C1085.26 27.1 990 122.35 990 239.86C990.01 357.37 1085.27 452.62 1202.78 452.62Z" fill="white"/>
<path d="M1032.13 519.5H1036.71C1041.35 519.5 1046.28 522.63 1046.28 529.24C1046.28 535.91 1041.24 539.1 1036.71 539.1H1025V458H1032.13V519.5ZM1032.13 533.47H1034.45C1036.77 533.47 1038.86 532.77 1038.86 529.24C1038.86 526.11 1036.83 525.12 1034.45 525.12H1032.13V533.47Z" fill="white"/>
</svg>
