<svg width="122" height="161" viewBox="0 0 122 161" fill="none" xmlns="http://www.w3.org/2000/svg">
<path d="M52.0105 1.03601H31.9055L112.447 80.759L52.0105 1.03601Z" fill="#015D84"/>
<path d="M0 13.9319V30.5202L112.458 80.759L0 13.9319Z" fill="#015D84"/>
<path d="M1.23523 50.1948V64.3141L112.458 80.7481L1.23523 50.1948Z" fill="#015D84"/>
<path d="M0 96.0798V109.02L112.458 81.8943L0 96.0798Z" fill="#015D84"/>
<path d="M0 131.395V148.236L112.458 80.748L0 131.395Z" fill="#015D84"/>
<path d="M31.5195 160.934L53.1795 161L112.447 80.759L31.5195 160.934Z" fill="#015D84"/>
<path d="M19.2999 0.308594V6.05111H6.98105V77.4634H0V0.308594H19.2999V0.308594Z" fill="white"/>
<path d="M19.2999 83.8342V89.5767H6.98105V160.989H0V83.8342H19.2999Z" fill="white"/>
<path d="M42.2062 93.0818V151.631C42.2062 156.602 39.5483 160.945 31.9387 160.945C24.1746 160.945 21.616 156.602 21.616 151.631V93.0818C21.616 88.1108 24.1746 83.7791 31.9387 83.7791C39.5483 83.7791 42.2062 88.1218 42.2062 93.0818ZM28.4206 92.2441V152.458C28.4206 155.015 29.9094 155.853 31.9276 155.853C34.0561 155.853 35.3906 155.125 35.3906 152.458V92.2441C35.3906 89.5767 34.0561 88.8493 31.9276 88.8493C29.9094 88.8493 28.4206 89.6319 28.4206 92.2441Z" fill="white"/>
<path d="M31.9387 0.308594C24.1746 0.308594 21.616 4.64028 21.616 9.61126V68.1717C21.616 73.1317 24.1746 77.4744 31.9387 77.4744C39.5483 77.4744 42.2062 73.1427 42.2062 68.1717V9.60023C42.2062 4.64028 39.5483 0.308594 31.9387 0.308594ZM35.8648 68.9984C35.8648 71.6657 34.2767 72.3932 32.1482 72.3932C30.13 72.3932 28.4316 71.5555 28.4316 68.9984V8.76255C28.4316 6.15031 29.8984 5.36774 31.9166 5.36774C34.0451 5.36774 35.4126 6.0952 35.4126 8.76255L35.8648 68.9984Z" fill="white"/>
<path d="M61.0428 83.8342C58.804 83.8342 56.5652 85.1348 55.5837 87.7471V84.5617H49.1871V160.989H55.5837V139.672C56.6755 142.229 58.6055 143.541 61.0428 143.541C64.9469 143.541 68.487 140.984 68.487 135.495V91.8253C68.487 86.0827 64.9469 83.8342 61.0428 83.8342ZM62.5537 135.131C62.5537 137.38 60.734 138.471 59.0687 138.471C57.4585 138.471 55.5837 137.369 55.5837 135.021V92.5638C55.5837 90.216 57.2269 89.1138 58.8371 89.1138C60.5024 89.1138 62.5647 90.205 62.5647 92.4535V135.131H62.5537Z" fill="white"/>
<path d="M118.887 149.173V0H101.319V10.3939C101.319 17.7897 100.591 145.955 98.8928 149.173H97.0841V160.702H103.084V154.056H115.226V160.702H121.226V149.173H118.887ZM112.535 149.173H105.3C106.646 146.252 107.418 18.947 107.418 12.5101V4.8828H112.535V149.173Z" fill="white"/>
<path d="M85.1401 0C77.8613 0 75.4681 4.33169 75.4681 9.30266V151.4C75.4681 156.36 77.8613 160.702 85.1401 160.702C92.2756 160.702 94.768 156.36 94.768 151.4V9.30266C94.768 4.33169 92.2646 0 85.1401 0ZM88.8237 152.237C88.8237 154.905 87.3238 155.632 85.3387 155.632C83.4418 155.632 81.8537 154.795 81.8537 152.237V8.46498C81.8537 5.85274 83.4528 5.07017 85.3387 5.07017C87.3348 5.07017 88.8237 5.79763 88.8237 8.46498V152.237Z" fill="white"/>
<path d="M55.5837 1.02507V4.21046C56.5762 1.59822 58.815 0.297607 61.0428 0.297607C64.9469 0.297607 68.487 2.54612 68.487 8.28864V51.9582C68.487 57.4473 64.9469 60.0044 61.0428 60.0044C58.5945 60.0044 56.6755 58.6928 55.5837 56.1356V77.4524H49.1871V1.02507H55.5837ZM55.5837 9.02712V51.4953C55.5837 53.843 57.4585 54.9452 59.0687 54.9452C60.734 54.9452 62.5537 53.843 62.5537 51.6055V8.9169C62.5537 6.66839 60.734 5.5772 59.0687 5.5772C57.4585 5.5772 55.5837 6.66839 55.5837 9.02712Z" fill="white"/>
<path d="M112.524 119.59C92.0552 119.59 75.4573 103.002 75.4573 82.5447C75.4573 62.0876 92.0552 45.4993 112.524 45.4993V119.59Z" fill="#C5232D"/>
<path d="M112.524 52.1567C99.3008 52.1567 88.5811 62.8702 88.5811 76.0857C88.5811 89.3012 99.3008 100.015 112.524 100.015V52.1567Z" fill="white"/>
<path d="M29.016 43.4822L30.6042 40.5282L30.3064 31.942L20.9542 26.3759L20.2263 29.8037L21.0424 39.911L29.016 43.4822Z" fill="#015D84"/>
<path d="M48.4042 71.2911L47.952 66.9814L48.5586 63.1568L57.0064 65.5155L56.2234 67.8301L56.4991 72.5035L48.4042 71.2911Z" fill="#015D84"/>
<path d="M19.2998 96.6528L21.6158 93.3462L28.4204 92.4865L30.3724 95.8372L28.4204 102.164L21.6158 103.806L20.546 100.004L19.2998 96.6528Z" fill="#015D84"/>
<path d="M62.4434 110.772L61.7375 110.078L62.5537 103.409L68.5642 100.522L69.4024 101.954L68.6965 107.014L62.4434 110.772Z" fill="#015D84"/>
<path d="M62.5537 30.8949L62.1346 24.3147L62.3442 14.7475L68.476 22.8267L69.634 29.6273L68.4871 36.8138L62.5537 30.8949Z" fill="#015D84"/>
</svg>
